<svg xmlns="http://www.w3.org/2000/svg" width="143.667" height="49.988" viewBox="0 0 143.667 49.988">
  <g id="Grupo_1195" data-name="Grupo 1195" transform="translate(-1103.619 -435.938)">
    <g id="Grupo_1120" data-name="Grupo 1120" transform="translate(1103.619 435.938)">
      <g id="Grupo_1119" data-name="Grupo 1119">
        <g id="Grupo_1118" data-name="Grupo 1118">
          <g id="Grupo_1117" data-name="Grupo 1117">
            <g id="Grupo_1116" data-name="Grupo 1116">
              <g id="Grupo_1115" data-name="Grupo 1115">
                <g id="Grupo_1114" data-name="Grupo 1114">
                  <path id="Caminho_1328" data-name="Caminho 1328" d="M1217.944,452.772c.08-.39.221-.553.652-.541,1.246,0,2.32,0,3.528,0,.512,0,.58.12.466.591q-1.687,7-3.339,14.008c-.48,2.019-.938,3.961-1.422,5.979a11.171,11.171,0,0,0-.187,2.968c-.017,1.932,0,3.84,0,5.773a.493.493,0,0,1-.488.492c-.8,0-2.9-.007-3.682-.007a.485.485,0,0,1-.488-.462c0-1.369.019-4.414.019-5.794a10.921,10.921,0,0,0-.256-2.965c-.3-1.321-.574-2.365-1.038-4.178-1.341-5.24-2.461-10.533-3.7-15.8-.111-.471-.03-.605.484-.608,1.193-.007,2.213,0,3.466,0,.455,0,.6.14.688.571.848,4.233,1.72,8.159,2.584,12.388C1215.446,464.2,1217.417,455.317,1217.944,452.772Z" transform="translate(-1143.543 -442.17)" fill="#fff"/>
                  <path id="Caminho_1329" data-name="Caminho 1329" d="M1327.429,475.624a7.184,7.184,0,0,1-7.174,6.521c-4.059,0-7.164-3.536-7.168-6.636q-.011-8.268,0-16.536a6.689,6.689,0,0,1,6.97-6.621c4.412.029,7.371,2.954,7.371,6.6Zm-4.647-8.535h.006c0-2.242,0-5.582,0-7.824,0-1.71-.939-2.734-2.484-2.734a2.425,2.425,0,0,0-2.565,2.735c-.006,4.966-.008,10.664,0,15.631,0,1.508.508,3,2.515,3,2.093,0,2.527-1.705,2.527-3C1322.783,472.4,1322.783,469.583,1322.783,467.089Z" transform="translate(-1183.762 -442.218)" fill="#fff"/>
                  <path id="Caminho_1330" data-name="Caminho 1330" d="M1243.987,466.774c0-2.955,0-6.213,0-9.168,0-1.594.021-3.189-.012-4.783-.01-.49.143-.579.6-.58,1.308,0,1.857,0,3.524,0,.392,0,.544.077.544.513,0,9.87-.012,19.176,0,28.764,0,.419-.121.534-.53.526-1.429,0-2.295,0-3.65,0a.7.7,0,0,1-.851-.636c-1.29-4.833-4.087-14.889-4.245-15.319.007.186,0,.505,0,.688,0,4.867-.011,9.735.008,14.6,0,.513-.12.683-.653.664-1.447,0-1.985-.006-3.525-.006-.348,0-.493-.093-.477-.457.023-.524.006-1.049.006-1.573V453.14c0-.886,0-.886.917-.886,1.406,0,2.075-.016,3.713-.016a.72.72,0,0,1,.843.653C1241.358,457.237,1243.987,466.774,1243.987,466.774Z" transform="translate(-1153.777 -442.174)" fill="#fff"/>
                  <path id="Caminho_1331" data-name="Caminho 1331" d="M1286.321,467.138c0-2.622.005-5.243,0-7.866a6.7,6.7,0,0,1,6.9-7.035c5.01,0,7.488,3.153,7.446,7.3-.014,1.347-.008,2.023.012,3.37.006.406-.07.533-.578.533-1.227,0-2.4-.007-3.6,0-.412,0-.479-.16-.483-.54-.012-1.277-.044-1.982-.044-3.375,0-1.459-.52-3.039-2.494-3.039-2.265,0-2.5,2.066-2.5,2.975,0,4.888,0,10.457,0,15.345,0,2.188,1.051,3.03,2.542,3.03,1.85,0,2.5-1.3,2.5-3.051,0-1.261.03-2.6,0-3.861-.009-.451.133-.556.568-.556,1.638,0,1.837.011,3.515.011.429,0,.572.07.572.515a34.8,34.8,0,0,1-.151,5.669,7.127,7.127,0,0,1-7.006,5.493,7.044,7.044,0,0,1-7.18-6.489c-.033-2.811-.007-5.622-.007-8.433Z" transform="translate(-1173.521 -442.174)" fill="#fff"/>
                  <path id="Caminho_1332" data-name="Caminho 1332" d="M1261.548,467.136c0-4.741.005-9.482-.009-14.222,0-.435.058-.615.564-.614q6.135.007,12.271-.051c.447,0,.635.077.615.577-.041,1.027-.039,2.057,0,3.083.019.491-.153.584-.609.584-2.747,0-4.571-.024-7.551-.024-.535-.007-.653.145-.646.66.03,2.223.025,4.447,0,6.671,0,.443.117.557.557.554,2.81,0,4.5-.022,7.615-.022.488,0,.655.112.634.623,0,1.142,0,1.745,0,3.02.015.462-.1.609-.589.6-2.591,0-4.885-.022-7.614-.022-.449,0-.608.08-.6.575q.041,4.059,0,8.118c0,.467.112.6.588.592,2.537-.025,5.076,0,7.614-.022.467,0,.62.117.6.6,0,1.467-.024,2.056,0,3.083.007.379-.053.559-.5.556q-6.23-.026-12.46,0c-.492,0-.474-.233-.474-.572Q1261.551,474.31,1261.548,467.136Z" transform="translate(-1164.041 -442.179)" fill="#fff"/>
                  <path id="Caminho_1333" data-name="Caminho 1333" d="M1187.882,473.168c.409,0,.5.13.5.507a9.071,9.071,0,0,0,.214,2.434,2.258,2.258,0,0,0,2.432,1.749,2.456,2.456,0,0,0,2.439-1.754,9.705,9.705,0,0,0-.035-4.751,2.721,2.721,0,0,0-2.744-2.155,8.6,8.6,0,0,1-5.372-2.141,5.808,5.808,0,0,1-1.653-4.187,36.684,36.684,0,0,1,.127-4.966c.318-3.1,2.837-5.676,7.1-5.676,4.17,0,7.186,2.323,7.186,6.835.009.545.007,1.05.007,1.635,0,.334-.108.434-.433.43l-3.775,0c-.37.006-.459-.128-.451-.473a8.484,8.484,0,0,0-.17-2.519,2.249,2.249,0,0,0-2.439-1.661,2.3,2.3,0,0,0-2.437,1.766,11.72,11.72,0,0,0,.065,5.628,3.219,3.219,0,0,0,2.771,1.671,8.454,8.454,0,0,1,5.251,2.189,5.447,5.447,0,0,1,1.525,3.339,23.593,23.593,0,0,1,.009,5.272,6.685,6.685,0,0,1-6.925,5.726c-5.177,0-7.38-3.255-7.38-6.678-.02-.569-.009-1.2-.009-1.754,0-.343.124-.468.637-.468Z" transform="translate(-1134.232 -442.171)" fill="#fff"/>
                  <path id="Caminho_1334" data-name="Caminho 1334" d="M1103.619,466.246a.248.248,0,0,1,.25-.251c2.42,0,2.909.006,7.079.006.4.005.455-.061.462-.466a16.376,16.376,0,0,1,2.369-8.5,16.919,16.919,0,0,1,11.97-8.237,17.163,17.163,0,0,1,17.142,7.311.546.546,0,0,1-.151.759c-1.075.682-2,1.274-3.118,1.975a.5.5,0,0,1-.7-.133,12.333,12.333,0,0,0-7.719-5.273,12.588,12.588,0,0,0-14.584,16.339c.128.394.222.509-.2.506-2.243-.015-4.582,0-6.825,0-.237,0-.662,0-.941,0a21.637,21.637,0,0,0,1.361,4.012,20.156,20.156,0,0,0,15.593,11.639,20.388,20.388,0,0,0,19.956-9,.494.494,0,0,1,.672-.14c.073.052,3.053,1.913,3.125,1.958a.487.487,0,0,1,.175.659,25.263,25.263,0,0,1-16.01,10.873,25,25,0,0,1-29.738-21.372C1103.688,467.966,1103.632,466.943,1103.619,466.246Z" transform="translate(-1103.619 -440.771)" fill="#fff"/>
                  <path id="Caminho_1335" data-name="Caminho 1335" d="M1132.824,436.241a24.956,24.956,0,0,1,17,10.954.475.475,0,0,1-.148.693c-1.246.782-1.827,1.142-3.135,1.971a.526.526,0,0,1-.7-.123,20.561,20.561,0,0,0-11.785-8.48,20.239,20.239,0,0,0-25.273,16.442.474.474,0,0,1-.736.357c-.047-.027-2.227-1.4-3.309-2.09a.52.52,0,0,1-.184-.569,25.018,25.018,0,0,1,18.763-18.822,21.95,21.95,0,0,1,3.235-.522A26.046,26.046,0,0,1,1132.824,436.241Z" transform="translate(-1103.969 -435.938)" fill="#fff"/>
                  <path id="Caminho_1336" data-name="Caminho 1336" d="M1138.406,461.239a9.229,9.229,0,0,1,7.551,3.882.589.589,0,0,1-.138.764c-.928.588-2.123,1.338-3.1,1.952a.542.542,0,0,1-.706-.119,4.736,4.736,0,0,0-8.4,1.979,4.735,4.735,0,0,0,8.411,3.777.57.57,0,0,1,.778-.123c.224.163,2.994,1.893,3.057,1.931a.473.473,0,0,1,.1.673,9.342,9.342,0,1,1-8.83-14.628A11.1,11.1,0,0,1,1138.406,461.239Z" transform="translate(-1113.311 -445.618)" fill="#fff"/>
                  <path id="Caminho_1337" data-name="Caminho 1337" d="M1135.092,497.739a16.942,16.942,0,0,1-14.128-7.527.533.533,0,0,1,.151-.724l3-1.9a.588.588,0,0,1,.725.125.938.938,0,0,1,.071.1,12.092,12.092,0,0,0,8.79,5.23,12.487,12.487,0,0,0,11.83-5.454.447.447,0,0,1,.662-.137c.556.353,2.108,1.31,3.183,1.992a.53.53,0,0,1,.135.716,16.885,16.885,0,0,1-10.725,7.206A19.34,19.34,0,0,1,1135.092,497.739Z" transform="translate(-1110.223 -455.61)" fill="#fff"/>
                </g>
              </g>
            </g>
          </g>
        </g>
      </g>
    </g>
  </g>
</svg>